<svg width="668" height="659" viewBox="0 0 668 659" fill="none" xmlns="http://www.w3.org/2000/svg">
<g filter="url(#filter0_d_71_75)">
<path d="M4.06079 329.642L330.216 224.252L657.48 328.877L330.216 427.267L4.06079 329.642Z" fill="#CFBFDC"/>
</g>
<g filter="url(#filter1_d_71_75)">
<path d="M4.06079 328.877L462.459 234.935L663.027 329.642L472.641 419.885L4.06079 328.877Z" fill="#85F052" fill-opacity="0.58" shape-rendering="crispEdges"/>
</g>
<g filter="url(#filter2_d_71_75)">
<path d="M4.06079 329.642L198.982 230.73L663.027 329.642L198.982 428.974L4.06079 329.642Z" fill="#B3EA3F" fill-opacity="0.63" shape-rendering="crispEdges"/>
</g>
<g filter="url(#filter3_d_71_75)">
<path d="M10.717 329.726L563.968 241.633L663.027 329.642L563.947 400.811L10.717 329.726Z" fill="#D17CAF" fill-opacity="0.59" shape-rendering="crispEdges"/>
</g>
<g filter="url(#filter4_d_71_75)">
<path d="M4.06084 329.726L106.123 235.345L654.152 329.726L106.123 402.861L4.06084 329.726Z" fill="#54EDE4" fill-opacity="0.75" shape-rendering="crispEdges"/>
<path d="M4.06084 329.726L106.123 235.345L654.152 329.726L106.123 402.861L4.06084 329.726Z" fill="#D8ED54" fill-opacity="0.2" shape-rendering="crispEdges"/>
</g>
<g filter="url(#filter5_d_71_75)">
<path d="M121.156 317.188H109.25V312.406C109.25 310.74 109.115 309.615 108.844 309.031C108.573 308.427 108.073 308.125 107.344 308.125C106.615 308.125 106.125 308.385 105.875 308.906C105.625 309.427 105.5 310.594 105.5 312.406V331.969C105.5 333.448 105.688 334.562 106.062 335.312C106.438 336.042 106.99 336.406 107.719 336.406C108.573 336.406 109.146 336.021 109.438 335.25C109.75 334.479 109.906 333.021 109.906 330.875V325.938H121.156C121.135 329.25 121.01 331.74 120.781 333.406C120.573 335.052 119.875 336.75 118.688 338.5C117.521 340.229 115.99 341.542 114.094 342.438C112.198 343.312 109.854 343.75 107.062 343.75C103.5 343.75 100.677 343.146 98.5938 341.938C96.5104 340.708 95.0312 339 94.1562 336.812C93.3021 334.604 92.875 331.479 92.875 327.438V315.656C92.875 312.135 93.2292 309.479 93.9375 307.688C94.6458 305.896 96.1562 304.302 98.4688 302.906C100.781 301.49 103.594 300.781 106.906 300.781C110.198 300.781 113.01 301.479 115.344 302.875C117.677 304.271 119.229 306.031 120 308.156C120.771 310.281 121.156 313.292 121.156 317.188ZM140.406 317.906V326.625H123.812V317.906H140.406ZM172.5 301.531V333.469C172.5 337.781 172.396 340.573 172.188 341.844C172 343.094 171.302 344.417 170.094 345.812C168.885 347.229 167.198 348.302 165.031 349.031C162.885 349.781 160.177 350.156 156.906 350.156C152.885 350.156 149.656 349.469 147.219 348.094C144.781 346.74 143.521 344.062 143.438 340.062H155.688C155.688 341.896 156.354 342.812 157.688 342.812C158.646 342.812 159.281 342.531 159.594 341.969C159.906 341.406 160.062 340.229 160.062 338.438V335.312C158.979 336.292 157.833 337.031 156.625 337.531C155.438 338.031 154.188 338.281 152.875 338.281C150.604 338.281 148.729 337.823 147.25 336.906C145.792 335.99 144.792 334.792 144.25 333.312C143.708 331.812 143.438 329.688 143.438 326.938V311.875C143.438 307.938 144.146 305.104 145.562 303.375C146.979 301.646 149.135 300.781 152.031 300.781C153.615 300.781 155.052 301.104 156.344 301.75C157.656 302.396 158.823 303.365 159.844 304.656L160.75 301.531H172.5ZM159.844 312.531C159.844 310.635 159.729 309.427 159.5 308.906C159.292 308.385 158.812 308.125 158.062 308.125C157.333 308.125 156.812 308.427 156.5 309.031C156.208 309.615 156.062 310.781 156.062 312.531V326.469C156.062 328.323 156.177 329.531 156.406 330.094C156.635 330.635 157.115 330.906 157.844 330.906C158.677 330.906 159.219 330.573 159.469 329.906C159.719 329.24 159.844 327.729 159.844 325.375V312.531ZM188.281 317.594H176.438V314.812C176.438 311.604 176.802 309.135 177.531 307.406C178.281 305.656 179.771 304.115 182 302.781C184.229 301.448 187.125 300.781 190.688 300.781C194.958 300.781 198.177 301.542 200.344 303.062C202.51 304.562 203.812 306.417 204.25 308.625C204.688 310.812 204.906 315.333 204.906 322.188V343H192.625V339.312C191.854 340.792 190.854 341.906 189.625 342.656C188.417 343.385 186.969 343.75 185.281 343.75C183.073 343.75 181.042 343.135 179.188 341.906C177.354 340.656 176.438 337.938 176.438 333.75V330.344C176.438 327.24 176.927 325.125 177.906 324C178.885 322.875 181.312 321.562 185.188 320.062C189.333 318.438 191.552 317.344 191.844 316.781C192.135 316.219 192.281 315.073 192.281 313.344C192.281 311.177 192.115 309.771 191.781 309.125C191.469 308.458 190.938 308.125 190.188 308.125C189.333 308.125 188.802 308.406 188.594 308.969C188.385 309.51 188.281 310.938 188.281 313.25V317.594ZM192.281 323.281C190.26 324.76 189.083 326 188.75 327C188.438 328 188.281 329.438 188.281 331.312C188.281 333.458 188.417 334.844 188.688 335.469C188.979 336.094 189.542 336.406 190.375 336.406C191.167 336.406 191.677 336.167 191.906 335.688C192.156 335.188 192.281 333.896 192.281 331.812V323.281ZM221.875 301.531L221.375 306.969C223.208 303.073 225.865 301.01 229.344 300.781V315.375C227.031 315.375 225.333 315.688 224.25 316.312C223.167 316.938 222.5 317.812 222.25 318.938C222 320.042 221.875 322.604 221.875 326.625V343H209.25V301.531H221.875ZM260.906 292.406V343H248.281V340C247.073 341.25 245.802 342.188 244.469 342.812C243.135 343.438 241.74 343.75 240.281 343.75C238.323 343.75 236.625 343.24 235.188 342.219C233.75 341.177 232.823 339.979 232.406 338.625C232.01 337.271 231.812 335.062 231.812 332V312.594C231.812 309.406 232.01 307.146 232.406 305.812C232.823 304.479 233.76 303.312 235.219 302.312C236.677 301.292 238.417 300.781 240.438 300.781C242 300.781 243.427 301.062 244.719 301.625C246.031 302.188 247.219 303.031 248.281 304.156V292.406H260.906ZM248.281 311.969C248.281 310.448 248.146 309.427 247.875 308.906C247.625 308.385 247.115 308.125 246.344 308.125C245.594 308.125 245.083 308.365 244.812 308.844C244.562 309.302 244.438 310.344 244.438 311.969V332.281C244.438 333.969 244.562 335.083 244.812 335.625C245.062 336.146 245.542 336.406 246.25 336.406C247.062 336.406 247.604 336.115 247.875 335.531C248.146 334.927 248.281 333.469 248.281 331.156V311.969ZM294.031 323H277.688V331.969C277.688 333.844 277.823 335.052 278.094 335.594C278.365 336.135 278.885 336.406 279.656 336.406C280.615 336.406 281.25 336.052 281.562 335.344C281.896 334.615 282.062 333.219 282.062 331.156V325.688H294.031V328.75C294.031 331.312 293.865 333.281 293.531 334.656C293.219 336.031 292.469 337.5 291.281 339.062C290.094 340.625 288.583 341.802 286.75 342.594C284.938 343.365 282.656 343.75 279.906 343.75C277.24 343.75 274.885 343.365 272.844 342.594C270.802 341.823 269.208 340.771 268.062 339.438C266.938 338.083 266.156 336.604 265.719 335C265.281 333.375 265.062 331.021 265.062 327.938V315.844C265.062 312.219 265.552 309.365 266.531 307.281C267.51 305.177 269.115 303.573 271.344 302.469C273.573 301.344 276.135 300.781 279.031 300.781C282.573 300.781 285.49 301.458 287.781 302.812C290.094 304.146 291.708 305.927 292.625 308.156C293.562 310.365 294.031 313.479 294.031 317.5V323ZM281.375 316.25V313.219C281.375 311.073 281.26 309.688 281.031 309.062C280.802 308.438 280.333 308.125 279.625 308.125C278.75 308.125 278.208 308.396 278 308.938C277.792 309.458 277.688 310.885 277.688 313.219V316.25H281.375ZM311.031 301.531L310.812 305.344C311.729 303.823 312.844 302.688 314.156 301.938C315.49 301.167 317.021 300.781 318.75 300.781C320.917 300.781 322.688 301.292 324.062 302.312C325.438 303.333 326.323 304.625 326.719 306.188C327.115 307.729 327.312 310.312 327.312 313.938V343H314.688V314.281C314.688 311.427 314.594 309.688 314.406 309.062C314.219 308.438 313.698 308.125 312.844 308.125C311.948 308.125 311.385 308.49 311.156 309.219C310.927 309.927 310.812 311.844 310.812 314.969V343H298.188V301.531H311.031Z" fill="black"/>
</g>
<defs>
<filter id="filter0_d_71_75" x="0.060791" y="224.252" width="661.42" height="211.015" filterUnits="userSpaceOnUse" color-interpolation-filters="sRGB">
<feFlood flood-opacity="0" result="BackgroundImageFix"/>
<feColorMatrix in="SourceAlpha" type="matrix" values="0 0 0 0 0 0 0 0 0 0 0 0 0 0 0 0 0 0 127 0" result="hardAlpha"/>
<feOffset dy="4"/>
<feGaussianBlur stdDeviation="2"/>
<feComposite in2="hardAlpha" operator="out"/>
<feColorMatrix type="matrix" values="0 0 0 0 0 0 0 0 0 0 0 0 0 0 0 0 0 0 0.25 0"/>
<feBlend mode="normal" in2="BackgroundImageFix" result="effect1_dropShadow_71_75"/>
<feBlend mode="normal" in="SourceGraphic" in2="effect1_dropShadow_71_75" result="shape"/>
</filter>
<filter id="filter1_d_71_75" x="0.060791" y="234.935" width="666.967" height="192.95" filterUnits="userSpaceOnUse" color-interpolation-filters="sRGB">
<feFlood flood-opacity="0" result="BackgroundImageFix"/>
<feColorMatrix in="SourceAlpha" type="matrix" values="0 0 0 0 0 0 0 0 0 0 0 0 0 0 0 0 0 0 127 0" result="hardAlpha"/>
<feOffset dy="4"/>
<feGaussianBlur stdDeviation="2"/>
<feComposite in2="hardAlpha" operator="out"/>
<feColorMatrix type="matrix" values="0 0 0 0 0 0 0 0 0 0 0 0 0 0 0 0 0 0 0.25 0"/>
<feBlend mode="normal" in2="BackgroundImageFix" result="effect1_dropShadow_71_75"/>
<feBlend mode="normal" in="SourceGraphic" in2="effect1_dropShadow_71_75" result="shape"/>
</filter>
<filter id="filter2_d_71_75" x="0.060791" y="230.73" width="666.967" height="206.244" filterUnits="userSpaceOnUse" color-interpolation-filters="sRGB">
<feFlood flood-opacity="0" result="BackgroundImageFix"/>
<feColorMatrix in="SourceAlpha" type="matrix" values="0 0 0 0 0 0 0 0 0 0 0 0 0 0 0 0 0 0 127 0" result="hardAlpha"/>
<feOffset dy="4"/>
<feGaussianBlur stdDeviation="2"/>
<feComposite in2="hardAlpha" operator="out"/>
<feColorMatrix type="matrix" values="0 0 0 0 0 0 0 0 0 0 0 0 0 0 0 0 0 0 0.25 0"/>
<feBlend mode="normal" in2="BackgroundImageFix" result="effect1_dropShadow_71_75"/>
<feBlend mode="normal" in="SourceGraphic" in2="effect1_dropShadow_71_75" result="shape"/>
</filter>
<filter id="filter3_d_71_75" x="6.71704" y="241.633" width="660.31" height="167.178" filterUnits="userSpaceOnUse" color-interpolation-filters="sRGB">
<feFlood flood-opacity="0" result="BackgroundImageFix"/>
<feColorMatrix in="SourceAlpha" type="matrix" values="0 0 0 0 0 0 0 0 0 0 0 0 0 0 0 0 0 0 127 0" result="hardAlpha"/>
<feOffset dy="4"/>
<feGaussianBlur stdDeviation="2"/>
<feComposite in2="hardAlpha" operator="out"/>
<feColorMatrix type="matrix" values="0 0 0 0 0 0 0 0 0 0 0 0 0 0 0 0 0 0 0.25 0"/>
<feBlend mode="normal" in2="BackgroundImageFix" result="effect1_dropShadow_71_75"/>
<feBlend mode="normal" in="SourceGraphic" in2="effect1_dropShadow_71_75" result="shape"/>
</filter>
<filter id="filter4_d_71_75" x="0.060791" y="235.345" width="658.092" height="175.515" filterUnits="userSpaceOnUse" color-interpolation-filters="sRGB">
<feFlood flood-opacity="0" result="BackgroundImageFix"/>
<feColorMatrix in="SourceAlpha" type="matrix" values="0 0 0 0 0 0 0 0 0 0 0 0 0 0 0 0 0 0 127 0" result="hardAlpha"/>
<feOffset dy="4"/>
<feGaussianBlur stdDeviation="2"/>
<feComposite in2="hardAlpha" operator="out"/>
<feColorMatrix type="matrix" values="0 0 0 0 0 0 0 0 0 0 0 0 0 0 0 0 0 0 0.25 0"/>
<feBlend mode="normal" in2="BackgroundImageFix" result="effect1_dropShadow_71_75"/>
<feBlend mode="normal" in="SourceGraphic" in2="effect1_dropShadow_71_75" result="shape"/>
</filter>
<filter id="filter5_d_71_75" x="88.875" y="292.406" width="242.438" height="65.75" filterUnits="userSpaceOnUse" color-interpolation-filters="sRGB">
<feFlood flood-opacity="0" result="BackgroundImageFix"/>
<feColorMatrix in="SourceAlpha" type="matrix" values="0 0 0 0 0 0 0 0 0 0 0 0 0 0 0 0 0 0 127 0" result="hardAlpha"/>
<feOffset dy="4"/>
<feGaussianBlur stdDeviation="2"/>
<feComposite in2="hardAlpha" operator="out"/>
<feColorMatrix type="matrix" values="0 0 0 0 0 0 0 0 0 0 0 0 0 0 0 0 0 0 0.25 0"/>
<feBlend mode="normal" in2="BackgroundImageFix" result="effect1_dropShadow_71_75"/>
<feBlend mode="normal" in="SourceGraphic" in2="effect1_dropShadow_71_75" result="shape"/>
</filter>
</defs>
</svg>
