<svg width="89" height="22" viewBox="0 0 89 22" fill="none" xmlns="http://www.w3.org/2000/svg">
<path d="M11.3086 9.32031H6.84375V7.52734C6.84375 6.90234 6.79297 6.48047 6.69141 6.26172C6.58984 6.03516 6.40234 5.92188 6.12891 5.92188C5.85547 5.92188 5.67188 6.01953 5.57812 6.21484C5.48438 6.41016 5.4375 6.84766 5.4375 7.52734V14.8633C5.4375 15.418 5.50781 15.8359 5.64844 16.1172C5.78906 16.3906 5.99609 16.5273 6.26953 16.5273C6.58984 16.5273 6.80469 16.3828 6.91406 16.0938C7.03125 15.8047 7.08984 15.2578 7.08984 14.4531V12.6016H11.3086C11.3008 13.8438 11.2539 14.7773 11.168 15.4023C11.0898 16.0195 10.8281 16.6562 10.3828 17.3125C9.94531 17.9609 9.37109 18.4531 8.66016 18.7891C7.94922 19.1172 7.07031 19.2812 6.02344 19.2812C4.6875 19.2812 3.62891 19.0547 2.84766 18.6016C2.06641 18.1406 1.51172 17.5 1.18359 16.6797C0.863281 15.8516 0.703125 14.6797 0.703125 13.1641V8.74609C0.703125 7.42578 0.835938 6.42969 1.10156 5.75781C1.36719 5.08594 1.93359 4.48828 2.80078 3.96484C3.66797 3.43359 4.72266 3.16797 5.96484 3.16797C7.19922 3.16797 8.25391 3.42969 9.12891 3.95312C10.0039 4.47656 10.5859 5.13672 10.875 5.93359C11.1641 6.73047 11.3086 7.85938 11.3086 9.32031ZM18.5273 9.58984V12.8594H12.3047V9.58984H18.5273ZM30.5625 3.44922V15.4258C30.5625 17.043 30.5234 18.0898 30.4453 18.5664C30.375 19.0352 30.1133 19.5312 29.6602 20.0547C29.207 20.5859 28.5742 20.9883 27.7617 21.2617C26.957 21.543 25.9414 21.6836 24.7148 21.6836C23.207 21.6836 21.9961 21.4258 21.082 20.9102C20.168 20.4023 19.6953 19.3984 19.6641 17.8984H24.2578C24.2578 18.5859 24.5078 18.9297 25.0078 18.9297C25.3672 18.9297 25.6055 18.8242 25.7227 18.6133C25.8398 18.4023 25.8984 17.9609 25.8984 17.2891V16.1172C25.4922 16.4844 25.0625 16.7617 24.6094 16.9492C24.1641 17.1367 23.6953 17.2305 23.2031 17.2305C22.3516 17.2305 21.6484 17.0586 21.0938 16.7148C20.5469 16.3711 20.1719 15.9219 19.9688 15.3672C19.7656 14.8047 19.6641 14.0078 19.6641 12.9766V7.32812C19.6641 5.85156 19.9297 4.78906 20.4609 4.14062C20.9922 3.49219 21.8008 3.16797 22.8867 3.16797C23.4805 3.16797 24.0195 3.28906 24.5039 3.53125C24.9961 3.77344 25.4336 4.13672 25.8164 4.62109L26.1562 3.44922H30.5625ZM25.8164 7.57422C25.8164 6.86328 25.7734 6.41016 25.6875 6.21484C25.6094 6.01953 25.4297 5.92188 25.1484 5.92188C24.875 5.92188 24.6797 6.03516 24.5625 6.26172C24.4531 6.48047 24.3984 6.91797 24.3984 7.57422V12.8008C24.3984 13.4961 24.4414 13.9492 24.5273 14.1602C24.6133 14.3633 24.793 14.4648 25.0664 14.4648C25.3789 14.4648 25.582 14.3398 25.6758 14.0898C25.7695 13.8398 25.8164 13.2734 25.8164 12.3906V7.57422ZM36.4805 9.47266H32.0391V8.42969C32.0391 7.22656 32.1758 6.30078 32.4492 5.65234C32.7305 4.99609 33.2891 4.41797 34.125 3.91797C34.9609 3.41797 36.0469 3.16797 37.3828 3.16797C38.9844 3.16797 40.1914 3.45312 41.0039 4.02344C41.8164 4.58594 42.3047 5.28125 42.4688 6.10938C42.6328 6.92969 42.7148 8.625 42.7148 11.1953V19H38.1094V17.6172C37.8203 18.1719 37.4453 18.5898 36.9844 18.8711C36.5312 19.1445 35.9883 19.2812 35.3555 19.2812C34.5273 19.2812 33.7656 19.0508 33.0703 18.5898C32.3828 18.1211 32.0391 17.1016 32.0391 15.5312V14.2539C32.0391 13.0898 32.2227 12.2969 32.5898 11.875C32.957 11.4531 33.8672 10.9609 35.3203 10.3984C36.875 9.78906 37.707 9.37891 37.8164 9.16797C37.9258 8.95703 37.9805 8.52734 37.9805 7.87891C37.9805 7.06641 37.918 6.53906 37.793 6.29688C37.6758 6.04688 37.4766 5.92188 37.1953 5.92188C36.875 5.92188 36.6758 6.02734 36.5977 6.23828C36.5195 6.44141 36.4805 6.97656 36.4805 7.84375V9.47266ZM37.9805 11.6055C37.2227 12.1602 36.7812 12.625 36.6562 13C36.5391 13.375 36.4805 13.9141 36.4805 14.6172C36.4805 15.4219 36.5312 15.9414 36.6328 16.1758C36.7422 16.4102 36.9531 16.5273 37.2656 16.5273C37.5625 16.5273 37.7539 16.4375 37.8398 16.2578C37.9336 16.0703 37.9805 15.5859 37.9805 14.8047V11.6055ZM49.0781 3.44922L48.8906 5.48828C49.5781 4.02734 50.5742 3.25391 51.8789 3.16797V8.64062C51.0117 8.64062 50.375 8.75781 49.9688 8.99219C49.5625 9.22656 49.3125 9.55469 49.2188 9.97656C49.125 10.3906 49.0781 11.3516 49.0781 12.8594V19H44.3438V3.44922H49.0781ZM63.7148 0.0273438V19H58.9805V17.875C58.5273 18.3438 58.0508 18.6953 57.5508 18.9297C57.0508 19.1641 56.5273 19.2812 55.9805 19.2812C55.2461 19.2812 54.6094 19.0898 54.0703 18.707C53.5312 18.3164 53.1836 17.8672 53.0273 17.3594C52.8789 16.8516 52.8047 16.0234 52.8047 14.875V7.59766C52.8047 6.40234 52.8789 5.55469 53.0273 5.05469C53.1836 4.55469 53.5352 4.11719 54.082 3.74219C54.6289 3.35938 55.2812 3.16797 56.0391 3.16797C56.625 3.16797 57.1602 3.27344 57.6445 3.48438C58.1367 3.69531 58.582 4.01172 58.9805 4.43359V0.0273438H63.7148ZM58.9805 7.36328C58.9805 6.79297 58.9297 6.41016 58.8281 6.21484C58.7344 6.01953 58.543 5.92188 58.2539 5.92188C57.9727 5.92188 57.7812 6.01172 57.6797 6.19141C57.5859 6.36328 57.5391 6.75391 57.5391 7.36328V14.9805C57.5391 15.6133 57.5859 16.0312 57.6797 16.2344C57.7734 16.4297 57.9531 16.5273 58.2188 16.5273C58.5234 16.5273 58.7266 16.418 58.8281 16.1992C58.9297 15.9727 58.9805 15.4258 58.9805 14.5586V7.36328ZM76.1367 11.5H70.0078V14.8633C70.0078 15.5664 70.0586 16.0195 70.1602 16.2227C70.2617 16.4258 70.457 16.5273 70.7461 16.5273C71.1055 16.5273 71.3438 16.3945 71.4609 16.1289C71.5859 15.8555 71.6484 15.332 71.6484 14.5586V12.5078H76.1367V13.6562C76.1367 14.6172 76.0742 15.3555 75.9492 15.8711C75.832 16.3867 75.5508 16.9375 75.1055 17.5234C74.6602 18.1094 74.0938 18.5508 73.4062 18.8477C72.7266 19.1367 71.8711 19.2812 70.8398 19.2812C69.8398 19.2812 68.957 19.1367 68.1914 18.8477C67.4258 18.5586 66.8281 18.1641 66.3984 17.6641C65.9766 17.1562 65.6836 16.6016 65.5195 16C65.3555 15.3906 65.2734 14.5078 65.2734 13.3516V8.81641C65.2734 7.45703 65.457 6.38672 65.8242 5.60547C66.1914 4.81641 66.793 4.21484 67.6289 3.80078C68.4648 3.37891 69.4258 3.16797 70.5117 3.16797C71.8398 3.16797 72.9336 3.42188 73.793 3.92969C74.6602 4.42969 75.2656 5.09766 75.6094 5.93359C75.9609 6.76172 76.1367 7.92969 76.1367 9.4375V11.5ZM71.3906 8.96875V7.83203C71.3906 7.02734 71.3477 6.50781 71.2617 6.27344C71.1758 6.03906 71 5.92188 70.7344 5.92188C70.4062 5.92188 70.2031 6.02344 70.125 6.22656C70.0469 6.42188 70.0078 6.95703 70.0078 7.83203V8.96875H71.3906ZM82.5117 3.44922L82.4297 4.87891C82.7734 4.30859 83.1914 3.88281 83.6836 3.60156C84.1836 3.3125 84.7578 3.16797 85.4062 3.16797C86.2188 3.16797 86.8828 3.35938 87.3984 3.74219C87.9141 4.125 88.2461 4.60938 88.3945 5.19531C88.543 5.77344 88.6172 6.74219 88.6172 8.10156V19H83.8828V8.23047C83.8828 7.16016 83.8477 6.50781 83.7773 6.27344C83.707 6.03906 83.5117 5.92188 83.1914 5.92188C82.8555 5.92188 82.6445 6.05859 82.5586 6.33203C82.4727 6.59766 82.4297 7.31641 82.4297 8.48828V19H77.6953V3.44922H82.5117Z" fill="black"/>
</svg>
