<svg width="21" height="21" viewBox="0 0 21 21" fill="none" xmlns="http://www.w3.org/2000/svg">
<path d="M7.0332 10.1875C7.83713 11.8477 9.17957 13.1867 10.8418 13.9863C10.9644 14.0444 11.1 14.0695 11.2353 14.0592C11.3706 14.049 11.5008 14.0036 11.6133 13.9277L14.0547 12.2969C14.1626 12.2237 14.2872 12.1791 14.417 12.1671C14.5468 12.1552 14.6775 12.1763 14.7969 12.2285L19.3672 14.1914C19.5234 14.2564 19.6539 14.371 19.7386 14.5174C19.8233 14.6639 19.8575 14.8341 19.8359 15.002C19.6911 16.1326 19.1392 17.1716 18.2836 17.9248C17.428 18.6779 16.3273 19.0935 15.1875 19.0938C11.6651 19.0938 8.28696 17.6945 5.79624 15.2038C3.30552 12.713 1.90625 9.33491 1.90625 5.8125C1.90651 4.67266 2.32208 3.57196 3.07522 2.71636C3.82836 1.86077 4.86744 1.30892 5.99805 1.16406C6.16586 1.14251 6.3361 1.17671 6.48256 1.26141C6.62902 1.34612 6.74358 1.47661 6.80859 1.63281L8.77148 6.21289C8.82253 6.33042 8.84388 6.4587 8.83366 6.58642C8.82345 6.71415 8.78197 6.8374 8.71289 6.94531L7.08203 9.42578C7.00942 9.53797 6.96681 9.66691 6.95826 9.80027C6.94971 9.93364 6.97552 10.067 7.0332 10.1875V10.1875Z" stroke="#E98427" stroke-width="2" stroke-linecap="round" stroke-linejoin="round"/>
</svg>
