<svg width="30" height="31" viewBox="0 0 30 31" fill="none" xmlns="http://www.w3.org/2000/svg">
<rect y="0.0569916" width="30" height="30.0814" rx="15" fill="#48C95F"/>
<path d="M20.9451 9.12843C19.4634 7.64786 17.4878 6.82532 15.4024 6.82532C11.0671 6.82532 7.55488 10.3348 7.55488 14.6669C7.55488 16.0378 7.93902 17.4086 8.59756 18.5602L7.5 22.6181L11.6707 21.5213C12.8232 22.1245 14.0854 22.4536 15.4024 22.4536C19.7378 22.4536 23.25 18.9441 23.25 14.612C23.1951 12.5831 22.4268 10.609 20.9451 9.12843ZM19.189 17.4635C19.0244 17.9022 18.2561 18.3409 17.872 18.3957C17.5427 18.4505 17.1037 18.4505 16.6646 18.3409C16.3902 18.2312 16.0061 18.1215 15.5671 17.9022C13.5915 17.0796 12.3293 15.1055 12.2195 14.941C12.1098 14.8314 11.3963 13.8992 11.3963 12.9121C11.3963 11.9251 11.8902 11.4864 12.0549 11.267C12.2195 11.0477 12.439 11.0477 12.6037 11.0477C12.7134 11.0477 12.878 11.0477 12.9878 11.0477C13.0976 11.0477 13.2622 10.9928 13.4268 11.3767C13.5915 11.7606 13.9756 12.7476 14.0305 12.8024C14.0854 12.9121 14.0854 13.0218 14.0305 13.1314C13.9756 13.2411 13.9207 13.3508 13.811 13.4605C13.7012 13.5701 13.5915 13.7346 13.5366 13.7895C13.4268 13.8992 13.3171 14.0088 13.4268 14.1733C13.5366 14.3927 13.9207 14.9959 14.5244 15.5442C15.2927 16.2023 15.8963 16.4216 16.1159 16.5313C16.3354 16.6409 16.4451 16.5861 16.5549 16.4764C16.6646 16.3668 17.0488 15.9281 17.1585 15.7087C17.2683 15.4894 17.4329 15.5442 17.5976 15.5991C17.7622 15.6539 18.75 16.1474 18.9146 16.2571C19.1341 16.3668 19.2439 16.4216 19.2988 16.4764C19.3537 16.6409 19.3537 17.0248 19.189 17.4635Z" fill="white"/>
</svg>
