<svg width="25" height="24" viewBox="0 0 25 24" fill="none" xmlns="http://www.w3.org/2000/svg">
<path fill-rule="evenodd" clip-rule="evenodd" d="M21.3574 3.45905C20.2043 2.35932 18.8323 1.48732 17.3209 0.893561C15.8095 0.299804 14.1888 -0.00390204 12.5527 3.7847e-05C5.69189 3.7847e-05 0.106766 5.29038 0.103993 11.7933C0.103993 13.8716 0.676648 15.9 1.76511 17.6892L0 23.7993L6.59871 22.1585C8.42399 23.0999 10.4689 23.5935 12.5471 23.5944H12.5527C19.4121 23.5944 24.9972 18.3041 25 11.8012C25.0047 10.2516 24.6852 8.71654 24.06 7.28468C23.4347 5.85281 22.5162 4.55256 21.3574 3.45905ZM12.5527 21.6041H12.5485C10.6954 21.6043 8.87634 21.1319 7.28229 20.2365L6.90514 20.0237L2.98946 20.9972L4.03355 17.3805L3.78812 17.01C2.75206 15.4473 2.20359 13.6388 2.20604 11.7933C2.20881 6.38864 6.84968 1.99163 12.5568 1.99163C13.916 1.98877 15.2623 2.24135 16.5178 2.73474C17.7733 3.22813 18.913 3.95254 19.871 4.86604C20.8342 5.77519 21.5976 6.85619 22.1171 8.04655C22.6366 9.23691 22.902 10.513 22.8979 11.8012C22.8951 17.2058 18.2543 21.6041 12.5527 21.6041ZM18.2279 14.2617C17.9159 14.1133 16.3879 13.4013 16.1023 13.3027C15.818 13.2042 15.6114 13.1556 15.4035 13.4499C15.1955 13.7441 14.5992 14.4076 14.4176 14.6046C14.236 14.8017 14.0543 14.8253 13.7437 14.6782C13.4331 14.5311 12.4306 14.2197 11.2424 13.216C10.3175 12.4344 9.69355 11.4701 9.5119 11.1745C9.33026 10.8789 9.49249 10.72 9.64918 10.5728C9.78922 10.4415 9.95977 10.2286 10.1151 10.0565C10.2704 9.88444 10.3217 9.76227 10.4257 9.56521C10.5297 9.36815 10.4783 9.19605 10.3993 9.04892C10.3217 8.90047 9.69909 7.45012 9.4398 6.86027C9.18883 6.2888 8.93232 6.365 8.74097 6.35711C8.5428 6.34943 8.34447 6.34593 8.14613 6.3466C7.98841 6.35041 7.83323 6.38505 7.69031 6.44835C7.54738 6.51165 7.41981 6.60224 7.31557 6.71444C7.02994 7.01003 6.22711 7.72206 6.22711 9.17241C6.22711 10.6228 7.34191 12.0245 7.49721 12.2215C7.65251 12.4186 9.69077 15.3942 12.8106 16.6711C13.5538 16.9746 14.1334 17.1559 14.584 17.2925C15.3286 17.5171 16.0066 17.4843 16.5432 17.4094C17.1408 17.3253 18.3832 16.6974 18.6425 16.009C18.9018 15.3206 18.9018 14.7307 18.8241 14.6073C18.7465 14.4838 18.5371 14.4089 18.2279 14.2617Z" fill="black"/>
</svg>
